<?xml version="1.0" encoding="UTF-8"?>
<svg width="20px" height="20px" viewBox="0 0 20 20" version="1.1" xmlns="http://www.w3.org/2000/svg" xmlns:xlink="http://www.w3.org/1999/xlink">
    <title>debug-icon</title>
    <g id="debug-icon" stroke="none" stroke-width="1" fill="none" fill-rule="evenodd">
        <rect x="0" y="0" width="20" height="20"></rect>
        <path d="M19.5455826,7.55964885 C19.4253682,7.55964885 19.30944,7.60824196 19.2241712,7.69501647 L17.0834796,9.87389801 L15.3324016,9.87389801 C15.2428856,9.46607135 15.1005148,9.07210621 14.9078469,8.70333175 L16.5429925,7.98397607 C16.6623449,7.93191314 16.7535653,7.83125488 16.7944778,7.7063034 L17.7041287,4.9295545 C17.7834133,4.68657787 17.6546806,4.42454162 17.4159758,4.34383819 C17.1781309,4.26313921 16.9206657,4.39416621 16.8405256,4.63626318 L15.995672,7.21686253 L14.3997453,7.91886908 C14.0263497,7.45201984 13.5685342,7.06154231 13.0519014,6.76911733 C13.1354483,6.50099445 13.178074,6.22069831 13.1797807,5.93955804 C13.1755183,5.19330122 12.8865012,4.47829948 12.3732948,3.94463056 L13.5011921,2.79574515 C13.5890014,2.7098392 13.6393006,2.59095881 13.640154,2.46686701 C13.6410073,2.34278188 13.5932659,2.22389037 13.507159,2.13625618 C13.4210542,2.04861532 13.3034063,1.99915365 13.1814917,1.99994913 C13.0595815,2.00175712 12.9436468,2.05208736 12.8583779,2.14146314 L11.6486382,3.37278467 C10.6239059,2.78446933 9.37058238,2.78446933 8.34591558,3.37278467 L7.13617583,2.14146314 C6.95714614,1.96618142 6.67410458,1.9687849 6.49848171,2.14753644 C6.32286102,2.32542164 6.32030317,2.61438568 6.49336601,2.79574071 L7.62211452,3.94462612 C7.10803296,4.47827283 6.81903109,5.19329678 6.81477529,5.9395536 C6.81648198,6.22069387 6.8591055,6.50010145 6.94265458,6.76911288 C6.42602172,7.06153786 5.9682281,7.4520154 5.59395736,7.91886464 L3.99888179,7.21685809 L3.15402819,4.63625873 C3.0738903,4.39417066 2.81642285,4.26313032 2.57857794,4.34383375 C2.33986004,4.42453274 2.21113831,4.68659564 2.29127839,4.92955006 L3.20092934,7.70629896 C3.24099938,7.83125266 3.33221982,7.93190425 3.4515635,7.98484019 L5.0867091,8.70332953 C4.89403901,9.07212621 4.75165724,9.46606913 4.6621544,9.87389579 L2.91107631,9.87389579 L0.770384115,7.69501425 C0.59220558,7.51973253 0.308312858,7.52233601 0.132689988,7.70108978 C-0.0420773566,7.87897498 -0.0446352043,8.16793902 0.127574947,8.34929404 L2.40126584,10.6635476 C2.48651943,10.7503199 2.60160948,10.7989153 2.7226773,10.7989153 L4.54793733,10.7989153 C4.54708399,10.8318897 4.54111713,10.863127 4.54111713,10.8961015 L4.54111713,12.4884004 L2.85824104,14.1717988 C2.77128295,14.2585711 2.72269039,14.3774515 2.72269039,14.5015433 L2.72269039,18.2041714 C2.72269039,18.4592768 2.92559188,18.6666667 3.17707938,18.6666667 C3.42856687,18.6666667 3.63146836,18.4592791 3.63146836,18.2041714 L3.63146836,14.6959135 L4.55561088,13.7717671 C4.62892857,14.9701008 5.14897916,16.0964612 6.0083025,16.9190453 C6.86764766,17.742518 8.00320545,18.2015479 9.18313273,18.2041714 L10.8114472,18.2041714 C11.9913309,18.2015679 13.1268232,17.7425424 13.9862775,16.9190453 C14.8456226,16.096439 15.3656601,14.970123 15.4389691,13.7717671 L16.3631116,14.6959135 L16.3631116,18.2041714 C16.3631116,18.4592768 16.5660131,18.6666667 16.8175006,18.6666667 C17.0689881,18.6666667 17.2718896,18.4592791 17.2718896,18.2041714 L17.2718896,14.5015433 C17.2718896,14.3774582 17.2232948,14.2585667 17.1363389,14.1717988 L15.4534628,12.4884004 L15.4534628,10.8961015 C15.4534628,10.863127 15.447496,10.8318897 15.4466426,10.7989153 L17.2719027,10.7989153 C17.3929618,10.7989153 17.5080453,10.7503222 17.5933141,10.6635476 L19.867005,8.34929404 C19.9522564,8.26251953 20,8.14537627 20,8.02214859 C20,7.89979837 19.9522586,7.78179321 19.867005,7.69500314 C19.7817427,7.60824418 19.6657971,7.55964885 19.5455826,7.55964885 Z M12.2163669,6.38994449 C12.0808162,6.34655834 11.5049652,6.1712744 10.8114036,6.1712744 L9.18308909,6.1712744 C8.43935819,6.1712744 7.91282962,6.34655612 7.77727679,6.38994449 C7.74232463,6.2432966 7.72442188,6.09143288 7.72356853,5.93960025 C7.79091719,4.72824909 8.80626705,3.79803821 9.99725943,3.85703857 C11.18823,3.79803377 12.2035122,4.72824909 12.2709503,5.93960025 C12.2700752,6.09145287 12.2521724,6.24330993 12.2163669,6.38994449 Z M9.54284862,17.2782878 L9.18309127,17.2782878 C8.19330024,17.2774192 7.24445223,16.8765255 6.5453654,16.1641228 C5.84544922,15.4517201 5.45157996,14.4859224 5.45070405,13.4784513 L5.45070405,10.8960748 C5.44817096,9.88775954 5.84034226,8.92025137 6.54110959,8.20707118 C7.24187693,7.49380214 8.19244908,7.09463893 9.18298214,7.09721286 L9.54273949,7.09721286 L9.54284862,17.2782878 Z M10.4516484,17.2782878 L10.4516484,7.09713372 L10.8114058,7.09713372 C11.8020479,7.09456785 12.7525983,7.4937355 13.4532783,8.20700454 C14.1540456,8.92027358 14.5462126,9.88780397 14.5436959,10.8960082 L14.5436959,13.479251 C14.5428058,14.4858114 14.1489387,15.4516091 13.4490225,16.164034 C12.7491063,16.8764367 11.8010877,17.2773326 10.8112966,17.2782878 L10.4516484,17.2782878 Z" id="Fill-1" fill="#FFFFFF"></path>
    </g>
</svg>