<svg width="100" height="100" viewBox="0 0 100 100" fill="none" xmlns="http://www.w3.org/2000/svg"><path d="M2 90a3.998 3.998 0 004 3.941 4.064 4.064 0 004-4.062c.004-6.555 5.316-11.867 11.871-11.88h2.82c.825 1.684 1.801 3.29 2.91 4.802A27.992 27.992 0 0050 94a27.993 27.993 0 0022.398-11.2 31.62 31.62 0 002.91-4.8h2.813c3.168.012 6.2 1.281 8.43 3.535A11.916 11.916 0 0190 90a3.998 3.998 0 004 3.941 4.064 4.064 0 004-4.062 19.9 19.9 0 00-19.872-19.88c.258-1.187.453-2.39.582-3.6l.398-4.4H94c2.211 0 4-1.788 4-4 0-2.21-1.789-4-4-4H79.84l.559-6.19c.035-.665.035-1.333 0-2A19.871 19.871 0 0098 26a3.998 3.998 0 00-4-3.942 4.063 4.063 0 00-4 4.07C90.01 32.484 85.015 37.714 78.672 38A18.851 18.851 0 0066 26.88v-4.88A15.998 15.998 0 0042 8.144 16 16 0 0034 22v4.88a18.851 18.851 0 00-12.672 11.12C14.94 37.695 9.937 32.394 10 26a3.998 3.998 0 00-4-3.941 4.063 4.063 0 00-4 4.07 19.813 19.813 0 005.074 13.18 19.822 19.822 0 0012.555 6.461 21.31 21.31 0 000 2L20.16 54H6c-2.21 0-4 1.79-4 4 0 2.212 1.79 4 4 4h14.891l.399 4.399c.128 1.21.324 2.414.582 3.602a19.927 19.927 0 00-14.079 5.882A19.924 19.924 0 002 90V90zm70.43-42.91l-1.691 18.582A24.22 24.22 0 0166 78a19.988 19.988 0 01-12 7.559v-51.56h6.48a11.996 11.996 0 018.895 3.891 11.993 11.993 0 013.106 9.2h-.051zM50 14a8 8 0 018 8v4H42v-4a8 8 0 018-8zM30.66 37.91A11.865 11.865 0 0139.52 34H46v51.559A19.988 19.988 0 0134 78a24.222 24.222 0 01-4.738-12.328L27.57 47.09c-.324-3.36.801-6.699 3.09-9.18z" fill="#fff"/></svg>