<svg viewBox="0 0 17 17" xmlns="http://www.w3.org/2000/svg"><title>oxy_pricing_box</title><g fill="none" fill-rule="evenodd"><rect stroke="#FFF" stroke-width="1.5" x=".75" y="1.75" width="15.5" height="13.5" rx="2"/><path d="M9.271 13.5v-1.169c.357-.065.675-.168.954-.308a2.49 2.49 0 00.703-.514c.19-.202.334-.433.434-.693.1-.26.151-.538.151-.833 0-.549-.171-1.009-.513-1.38-.342-.372-.87-.622-1.584-.752l-.256-.044V6a2.2 2.2 0 011.182.65l.96-1.04a2.868 2.868 0 00-.832-.638c-.33-.173-.73-.289-1.199-.346V3.5H8v1.136c-.721.094-1.275.332-1.662.715-.386.382-.58.88-.58 1.493 0 .556.171 1.026.513 1.412.342.386.87.64 1.584.763l.257.044v1.991a2.766 2.766 0 01-.865-.27 2.87 2.87 0 01-.764-.574l-.97 1.028c.26.325.6.586 1.02.785.42.198.91.319 1.467.362V13.5h1.271zm-1.16-5.898c-.275-.072-.473-.168-.596-.287-.123-.12-.184-.294-.184-.525 0-.23.061-.415.184-.552.123-.137.321-.227.597-.27v1.634zM9.16 9.258c.275.065.476.158.602.281.126.123.19.307.19.552 0 .252-.065.46-.195.622-.13.163-.33.273-.597.33V9.258z" fill="#FFF" fill-rule="nonzero"/></g></svg>