<svg viewBox="0 0 17 17" xmlns="http://www.w3.org/2000/svg"><title>oxy_gallery</title><g fill="none" fill-rule="evenodd"><rect stroke="#FFF" stroke-width="1.5" x=".75" y="9.75" width="6.5" height="6.5" rx="2"/><rect stroke="#FFF" stroke-width="1.5" x=".75" y=".75" width="6.5" height="6.5" rx="2"/><rect stroke="#FFF" stroke-width="1.5" x="9.75" y="9.75" width="6.5" height="6.5" rx="2"/><rect stroke="#FFF" stroke-width="1.5" x="9.75" y=".75" width="6.5" height="6.5" rx="2"/><path fill="#FFF" d="M3 13.75l.714 1.505 1-2.255L6 16H2zm0-9l.714 1.505 1-2.255L6 7H2zm9 9l.714 1.505 1-2.255L15 16h-4zm0-9l.714 1.505 1-2.255L15 7h-4z"/><circle fill="#FFF" cx="3" cy="12" r="1"/><circle fill="#FFF" cx="3" cy="3" r="1"/><circle fill="#FFF" cx="12" cy="12" r="1"/><circle fill="#FFF" cx="12" cy="3" r="1"/></g></svg>