<svg viewBox="0 0 17 17" xmlns="http://www.w3.org/2000/svg"><title>oxy_social_icons</title><path d="M13.273 0c-1.502 0-2.728 1.207-2.728 2.684 0 .352.066.693.192 1L5.553 6.515a2.74 2.74 0 00-1.826-.699C2.226 5.816 1 7.023 1 8.5c0 1.478 1.226 2.684 2.727 2.684.705 0 1.348-.264 1.833-.699l5.184 2.831a2.61 2.61 0 00-.199 1c0 1.477 1.226 2.684 2.728 2.684C14.774 17 16 15.793 16 14.316c0-1.478-1.226-2.684-2.727-2.684a2.74 2.74 0 00-2.053.922L6.128 9.772a2.63 2.63 0 000-2.544l5.092-2.782c.5.565 1.235.922 2.053.922C14.774 5.368 16 4.162 16 2.684 16 1.207 14.774 0 13.273 0z" fill="#FFF"/></svg>