<svg width="16" height="16" viewBox="0 0 16 16" fill="none" xmlns="http://www.w3.org/2000/svg">
<path d="M14.9596 15.7763H1.03961C0.623356 15.7763 0.271484 15.4563 0.271484 15.0401V8.00006C0.271484 7.60006 0.60774 7.2638 1.03961 7.2638C1.47148 7.2638 1.80774 7.5838 1.80774 8.00006V14.3201H14.2077V8.00006C14.2077 7.60006 14.544 7.2638 14.9759 7.2638C15.4077 7.2638 15.744 7.5838 15.744 8.00006V15.0401C15.7115 15.4401 15.3759 15.7763 14.9596 15.7763H14.9596Z" fill="#2245F8"/>
<path d="M11.5194 3.40816L8.55943 0.448155C8.2713 0.160027 7.7913 0.160027 7.48756 0.448155L4.49572 3.40816C4.35197 3.55191 4.27197 3.74441 4.27197 3.9519C4.27197 4.16003 4.35197 4.33564 4.49572 4.48003C4.63947 4.62378 4.83197 4.70377 5.02384 4.70377C5.23197 4.70377 5.42384 4.62377 5.56759 4.48003L7.19943 2.86371V10.4637C7.19943 10.9118 7.5513 11.2637 7.99943 11.2637C8.44756 11.2637 8.79943 10.9118 8.79943 10.4637V2.83187L10.4476 4.48003C10.7357 4.76816 11.2157 4.76816 11.5195 4.48003C11.6632 4.33628 11.7432 4.14377 11.7432 3.9519C11.7432 3.74377 11.6632 3.5519 11.5195 3.40816H11.5194Z" fill="#2245F8"/>
</svg>
