<svg width="20" height="20" viewBox="0 0 20 20" fill="none" xmlns="http://www.w3.org/2000/svg">
<path fill-rule="evenodd" clip-rule="evenodd" d="M20 10C20 15.5228 15.5228 20 10 20C4.47715 20 0 15.5228 0 10C0 4.47715 4.47715 0 10 0C15.5228 0 20 4.47715 20 10ZM12.6167 18.6137C11.7887 18.8649 10.9101 19 10 19C8.99314 19 8.0249 18.8347 7.12094 18.5297L9.77347 10.8247L12.6167 18.6137ZM14.5186 17.7852C17.1984 16.2264 19 13.3236 19 10C19 8.49327 18.6297 7.07302 17.9752 5.82527C17.9917 6.01279 18 6.21567 18 6.42679C18 7.38674 17.8102 8.46947 17.2745 9.82009L14.5186 17.7852ZM15.6757 3.01494C14.8587 3.13089 14.3053 3.88392 14.3053 4.68549C14.3053 5.40814 14.6872 6.02576 15.1243 6.73262C15.1598 6.79005 15.1957 6.84806 15.2318 6.90676C15.589 7.54301 16.0131 8.34668 16.0131 9.51871C16.0131 10.281 15.7396 11.1507 15.3662 12.3381C15.3405 12.4199 15.3142 12.5033 15.2876 12.5883L14.3388 15.7472L10.9232 5.55614C11.4924 5.52265 12.0059 5.46684 12.0059 5.46684C12.5194 5.41103 12.4524 4.652 11.9501 4.68549C11.9501 4.68549 10.4097 4.80827 9.42745 4.80827C8.50099 4.80827 6.92712 4.68549 6.92712 4.68549C6.41366 4.652 6.35785 5.43336 6.87131 5.46684C6.87131 5.46684 7.35128 5.52265 7.86474 5.55614L9.33815 9.60801L7.25082 15.8253L3.80171 5.55614C4.37098 5.52265 4.88444 5.46684 4.88444 5.46684C5.3979 5.41103 5.33093 4.652 4.82863 4.68549C4.82863 4.68549 3.61093 4.78255 2.65047 4.80408C4.28066 2.5024 6.96488 1 10 1C12.1518 1 14.1272 1.75517 15.6757 3.01494ZM1.39517 7.35425C1.13827 8.19079 1 9.07925 1 10C1 13.1707 2.63959 15.9584 5.11718 17.5616L1.39517 7.35425Z" fill="white"/>
</svg>
