<svg width="20" height="20" viewBox="0 0 20 20" fill="none" xmlns="http://www.w3.org/2000/svg">
<path fill-rule="evenodd" clip-rule="evenodd" d="M4 0.488892C3.71772 0.488892 3.48889 0.717724 3.48889 1V19C3.48889 19.2823 3.71772 19.5111 4 19.5111H17C17.2823 19.5111 17.5111 19.2823 17.5111 19V4.5C17.5111 4.36445 17.4573 4.23444 17.3614 4.13859L13.8614 0.638593C13.7656 0.542741 13.6356 0.488892 13.5 0.488892H4ZM4.51111 18.4889V1.51111H12.4889V5C12.4889 5.28228 12.7177 5.51111 13 5.51111H16.4889V18.4889H4.51111ZM16.2661 4.48889L13.5111 1.73394V4.48889H16.2661ZM6 7.5C6 7.22386 6.22386 7 6.5 7H12.5C12.7761 7 13 7.22386 13 7.5C13 7.77614 12.7761 8 12.5 8H6.5C6.22386 8 6 7.77614 6 7.5ZM6.5 10C6.22386 10 6 10.2239 6 10.5C6 10.7761 6.22386 11 6.5 11H14.5C14.7761 11 15 10.7761 15 10.5C15 10.2239 14.7761 10 14.5 10H6.5ZM6 13.5C6 13.2239 6.22386 13 6.5 13H14.5C14.7761 13 15 13.2239 15 13.5C15 13.7761 14.7761 14 14.5 14H6.5C6.22386 14 6 13.7761 6 13.5ZM6.5 16C6.22386 16 6 16.2239 6 16.5C6 16.7761 6.22386 17 6.5 17H14.5C14.7761 17 15 16.7761 15 16.5C15 16.2239 14.7761 16 14.5 16H6.5Z" fill="white"/>
</svg>
