<svg width="20" height="20" viewBox="0 0 20 20" fill="none" xmlns="http://www.w3.org/2000/svg">
<path d="M10.136 16.2828C13.4298 16.2828 16.5798 14.236 19.5024 10.1968C19.6047 10.0562 19.6086 9.86633 19.5117 9.72179C19.3524 9.48195 15.5445 3.84839 10.0547 3.71859C6.69075 3.62953 3.47815 5.65375 0.499346 9.70539V9.70617C0.396221 9.84602 0.391533 10.0351 0.486063 10.1812C0.645437 10.4249 4.45486 16.1522 9.94926 16.2812C10.0118 16.282 10.0743 16.2827 10.136 16.2827L10.136 16.2828ZM18.6508 9.94919C15.8968 13.6672 12.9712 15.518 9.97177 15.4476C5.52017 15.3452 2.12097 11.0266 1.34917 9.95999C4.10377 6.30139 7.03117 4.48959 10.0312 4.55219C14.4796 4.65453 17.8758 8.89599 18.6508 9.94899V9.94919Z" fill="white"/>
<path d="M10 13.4242C10.9086 13.4242 11.7789 13.064 12.421 12.4211C13.064 11.7789 13.4241 10.9086 13.4241 10.0001C13.4241 9.09158 13.064 8.22118 12.421 7.57908C11.7788 6.93612 10.9085 6.57596 10 6.57596C9.09151 6.57596 8.22111 6.93612 7.57901 7.57908C6.93605 8.22126 6.57589 9.09158 6.57589 10.0001C6.57667 10.9079 6.93761 11.7782 7.57979 12.4205C8.22197 13.0627 9.09229 13.4236 10.0002 13.4244L10 13.4242ZM10 7.4086C11.0477 7.4086 11.993 8.03984 12.3938 9.0086C12.7954 9.97656 12.5735 11.0914 11.8321 11.832C11.0915 12.5734 9.97663 12.7953 9.00869 12.3937C8.03993 11.9929 7.40869 11.0476 7.40869 9.99992C7.41026 8.56946 8.56963 7.41012 10.0001 7.40852L10 7.4086Z" fill="white"/>
</svg>
