<?xml version="1.0" encoding="UTF-8"?>
<svg width="100px" height="100px" viewBox="0 0 100 100" version="1.1" xmlns="http://www.w3.org/2000/svg" xmlns:xlink="http://www.w3.org/1999/xlink">
    <title>cut-icon</title>
    <g id="cut-icon" stroke="none" stroke-width="1" fill="none" fill-rule="evenodd">
        <polygon id="Path" points="0 0 100 0 100 100 0 100"></polygon>
        <path d="M50,3 C52.4813632,3 54.7851327,3.73310167 56.7112988,4.98962151 C58.6982081,6.28576666 60.2849639,8.13643263 61.2511801,10.3109977 L61.2511801,10.3109977 L62.3375348,13 L85.6481481,13 C87.5332878,13 89.255905,13.7192206 90.5440535,14.8931549 C91.8110116,16.0477777 92.6606045,17.6448036 92.8097365,19.4317222 L92.8097365,19.4317222 L92.8333333,20.0566214 L92.8333333,90 C92.8333333,91.8233328 92.1044974,93.4854414 90.9279696,94.7299172 C89.7348477,95.9919454 88.0811648,96.8291589 86.2368034,96.9765859 L86.2368034,96.9765859 L85.5935656,97 L14.3518519,97 C12.4667122,97 10.744095,96.2807794 9.45594649,95.1068451 C8.18898838,93.9522223 7.33939546,92.3551964 7.1902635,90.5682778 L7.1902635,90.5682778 L7.16666667,89.9433786 L7.16666667,20 C7.16666667,18.1766672 7.89550261,16.5145586 9.07203041,15.2700828 C10.2651523,14.0080546 11.9188352,13.1708411 13.7631966,13.0234141 L13.7631966,13.0234141 L14.4064344,13 L37.9130707,13 C38.5100958,9.79572686 40.3760082,7.01092732 42.9791451,5.19829814 C44.965945,3.81483979 47.3842668,3 50,3 Z" id="Shape" stroke="#ffffff" stroke-width="6" fill-rule="nonzero"></path>
        <path d="M50,12.5 C47.7083333,12.5 45.8333333,14.375 45.8333333,16.6666667 C45.8333333,18.9583333 47.7083333,20.8333333 50,20.8333333 C52.2916667,20.8333333 54.1666667,18.9583333 54.1666667,16.6666667 C54.1666667,14.375 52.2916667,12.5 50,12.5 Z" id="Path" fill="#ffffff" fill-rule="nonzero"></path>
        <path d="M34.0739948,29.1666667 L63.4489489,66.2125959 C64.2137187,66.0110606 64.9967899,65.8947449 65.78438,65.8656248 L66.1784878,65.8583402 L66.1787162,65.8179074 C70.8912834,65.8179074 75.0508915,68.9152874 76.4436352,73.4546978 C77.8332751,77.9941885 76.1327748,82.9161768 72.2405735,85.5965493 C68.3512372,88.280124 63.1843173,88.0920051 59.4941832,85.1388443 C55.8872824,82.2465066 54.5177075,77.3654051 56.0605742,73.010438 L56.1677541,72.720914 L50.0060913,66.5826539 L43.8475379,72.720914 C45.6537275,77.3917828 44.0465012,82.7026892 39.9615442,85.5617906 C35.8796114,88.424022 30.3835264,88.0854242 26.6715859,84.7498459 C22.9627493,81.4136257 22.0052579,75.9465422 24.355493,71.5293609 C26.6617651,67.2005232 31.5567727,64.9853009 36.2752443,66.0992919 L36.5638863,66.1716656 L42.3183053,58.9486724 L33.9713933,50.6598866 C31.4034923,48.0987737 29.6998962,44.7914454 29.0998942,41.2049885 C28.7143987,38.9290234 28.9755183,36.5902985 29.8584382,34.4585525 C30.7382543,32.3267262 32.1993618,30.4927279 34.0739948,29.1666667 Z M36.2042747,70.9899563 C33.8693748,70.0203674 31.1806963,70.5565079 29.3934036,72.3435457 C27.6061012,74.1305836 27.0736907,76.8188787 28.0396212,79.1534457 C29.0055517,81.4880127 31.2871998,83.0128205 33.8122289,83.0128205 C37.2652211,83.0052281 40.0603,80.210542 40.0641026,76.7618383 C40.0641026,74.2332757 38.5391746,71.9557394 36.2042747,70.9899563 Z M68.2560764,70.9899563 C65.9214908,70.0203674 63.2331743,70.5565079 61.4461222,72.3435457 C59.6590605,74.1305836 59.1229351,76.8188787 60.0925221,79.1534457 C61.0583225,81.4880127 63.3358672,83.0128205 65.8643527,83.0128205 C69.3130838,83.0052281 72.1077795,80.210542 72.1153846,76.7618383 C72.1153846,74.2332757 70.590662,71.9557394 68.2560764,70.9899563 Z M62.9722386,29.1666667 L63.724061,29.7634507 C65.176893,31.0165641 66.319279,32.6196227 67.0509646,34.4407579 C67.9015969,36.5653358 68.154055,38.8961965 67.7813465,41.1645084 C67.2244508,44.5959296 65.6842193,47.7709708 63.3653376,50.2777732 L63.0714367,50.5876133 L57.685253,56.0897436 L50,46.0260339 L62.9722386,29.1666667 Z" id="Combined-Shape" fill="#ffffff" fill-rule="nonzero"></path>
    </g>
</svg>